<svg xmlns="http://www.w3.org/2000/svg" width="63.446" height="76.646" viewBox="0 0 63.446 76.646">
  <g id="Group_729" data-name="Group 729" transform="translate(-788 -3408.2)">
    <g id="Group_266" data-name="Group 266" transform="translate(798 3474.419)">
      <path id="Path_69" data-name="Path 69" d="M84.063,56.1a17.743,17.743,0,0,1-.628-2.324,2.816,2.816,0,0,0-.691-1.508,1.77,1.77,0,0,0-1.319-.44H80.168V56.1H79.1V46.488a12.663,12.663,0,0,1,2.261-.188,4.342,4.342,0,0,1,2.576.628,2.31,2.31,0,0,1,.879,1.947,2.492,2.492,0,0,1-1.822,2.513v.063a2.574,2.574,0,0,1,1.445,2.01,12.021,12.021,0,0,0,.754,2.638Zm-.251-7.036c0-1.256-.754-1.885-2.324-1.885a5.962,5.962,0,0,0-1.256.126v3.706H81.55a2.534,2.534,0,0,0,1.633-.5A2.164,2.164,0,0,0,83.811,49.064Z" transform="translate(-79.1 -45.86)" fill="#fff"/>
      <path id="Path_70" data-name="Path 70" d="M96.23,53.8a1.394,1.394,0,0,1-.063.565H91.331a3.139,3.139,0,0,0,.628,1.947,2.364,2.364,0,0,0,1.759.691A4.59,4.59,0,0,0,95.6,56.63l.188.817a5.015,5.015,0,0,1-2.261.44,3.2,3.2,0,0,1-1.382-.251,3.285,3.285,0,0,1-1.068-.754,2.512,2.512,0,0,1-.628-1.131,4.947,4.947,0,0,1-.251-1.445,3.8,3.8,0,0,1,.251-1.508,3.6,3.6,0,0,1,.628-1.194,3.024,3.024,0,0,1,1.005-.754A2.913,2.913,0,0,1,93.4,50.6a2.549,2.549,0,0,1,1.194.251,3.055,3.055,0,0,1,.879.691,3.186,3.186,0,0,1,.565,1.005A3.777,3.777,0,0,1,96.23,53.8Zm-1.068-.251a2.341,2.341,0,0,0-.44-1.57,1.622,1.622,0,0,0-1.319-.565,1.5,1.5,0,0,0-1.319.628,2.543,2.543,0,0,0-.628,1.57l3.706-.063Z" transform="translate(-83.227 -47.459)" fill="#fff"/>
      <path id="Path_71" data-name="Path 71" d="M105.8,55.714a1.911,1.911,0,0,1-.691,1.508,2.748,2.748,0,0,1-1.822.565,3.663,3.663,0,0,1-1.885-.5l.314-.879a3.114,3.114,0,0,0,1.633.5,1.6,1.6,0,0,0,1.005-.314,1.013,1.013,0,0,0,.377-.817,1.04,1.04,0,0,0-.314-.754,3.549,3.549,0,0,0-1.005-.565c-1.194-.5-1.822-1.131-1.822-1.947a1.739,1.739,0,0,1,.188-.817,2.257,2.257,0,0,1,.44-.628,2.594,2.594,0,0,1,.691-.44,2.442,2.442,0,0,1,.942-.126,2.768,2.768,0,0,1,1.633.44l-.314.817a2.69,2.69,0,0,0-1.382-.377,1.243,1.243,0,0,0-.879.314,1.04,1.04,0,0,0-.314.754.8.8,0,0,0,.063.377c.063.126.126.188.188.314.126.126.251.188.377.314a5.837,5.837,0,0,0,.628.314C105.169,54.143,105.8,54.834,105.8,55.714Z" transform="translate(-87.392 -47.422)" fill="#fff"/>
      <path id="Path_72" data-name="Path 72" d="M116.13,53.8a1.394,1.394,0,0,1-.063.565h-4.837a3.139,3.139,0,0,0,.628,1.947,2.364,2.364,0,0,0,1.759.691,4.59,4.59,0,0,0,1.885-.377l.188.817a5.015,5.015,0,0,1-2.261.44,3.2,3.2,0,0,1-1.382-.251,3.284,3.284,0,0,1-1.068-.754,2.513,2.513,0,0,1-.628-1.131,4.947,4.947,0,0,1-.251-1.445,3.8,3.8,0,0,1,.251-1.508,3.6,3.6,0,0,1,.628-1.194,3.024,3.024,0,0,1,1.005-.754A2.913,2.913,0,0,1,113.3,50.6a2.549,2.549,0,0,1,1.194.251,3.055,3.055,0,0,1,.879.691,3.186,3.186,0,0,1,.565,1.005A3.777,3.777,0,0,1,116.13,53.8Zm-1.068-.251a2.341,2.341,0,0,0-.44-1.57,1.622,1.622,0,0,0-1.319-.565,1.5,1.5,0,0,0-1.319.628,2.543,2.543,0,0,0-.628,1.57l3.706-.063Z" transform="translate(-90.627 -47.459)" fill="#fff"/>
      <path id="Path_73" data-name="Path 73" d="M123.368,55.839H122.3V45.6h1.068V55.839Z" transform="translate(-95.163 -45.6)" fill="#fff"/>
      <path id="Path_74" data-name="Path 74" d="M128.468,55.839H127.4V45.6h1.068Z" transform="translate(-97.059 -45.6)" fill="#fff"/>
      <path id="Path_75" data-name="Path 75" d="M137.63,53.8a1.394,1.394,0,0,1-.063.565h-4.837a3.138,3.138,0,0,0,.628,1.947,2.364,2.364,0,0,0,1.759.691A4.59,4.59,0,0,0,137,56.63l.188.817a5.015,5.015,0,0,1-2.261.44,3.2,3.2,0,0,1-1.382-.251,3.285,3.285,0,0,1-1.068-.754,2.513,2.513,0,0,1-.628-1.131,4.947,4.947,0,0,1-.251-1.445,3.8,3.8,0,0,1,.251-1.508,3.6,3.6,0,0,1,.628-1.194,3.024,3.024,0,0,1,1.005-.754A2.913,2.913,0,0,1,134.8,50.6a2.549,2.549,0,0,1,1.194.251,3.055,3.055,0,0,1,.879.691,3.186,3.186,0,0,1,.565,1.005A3.777,3.777,0,0,1,137.63,53.8Zm-1.068-.251a2.341,2.341,0,0,0-.44-1.57,1.622,1.622,0,0,0-1.319-.565,1.5,1.5,0,0,0-1.319.628,2.543,2.543,0,0,0-.628,1.57l3.706-.063Z" transform="translate(-98.621 -47.459)" fill="#fff"/>
      <path id="Path_76" data-name="Path 76" d="M146.966,51.705h-.377a1.266,1.266,0,0,0-.691.188,2.035,2.035,0,0,0-.565.5,4.182,4.182,0,0,0-.377.754,4.274,4.274,0,0,0-.126.942v3.769h-1.068v-5.9a6.094,6.094,0,0,0-.063-1.068h.942V52.27h.063a3.565,3.565,0,0,1,.754-1.131,1.983,1.983,0,0,1,1.194-.44h.314v1.005Z" transform="translate(-103.12 -47.496)" fill="#fff"/>
    </g>
    <path id="Path_77" data-name="Path 77" d="M33.932,29.847A22.264,22.264,0,0,1,31.168,35.5c-1.633,2.45-3.392,4.837-6.093,4.9-2.638.063-3.518-1.57-6.533-1.57s-4.02,1.508-6.533,1.633c-2.638.126-4.586-2.638-6.282-5.025C2.335,30.538-.3,21.493,3.214,15.462A9.761,9.761,0,0,1,11.443,10.5c2.576-.063,4.963,1.7,6.533,1.7s4.523-2.136,7.6-1.822a9.291,9.291,0,0,1,7.287,3.957,8.91,8.91,0,0,0-4.272,7.538,8.891,8.891,0,0,0,5.339,7.978M23.567,7.045A8.824,8.824,0,0,0,25.64.7a8.819,8.819,0,0,0-7.978,9.171A7.442,7.442,0,0,0,23.567,7.045Z" transform="translate(801.452 3407.5)" fill="#fff"/>
    <g id="Group_267" data-name="Group 267" transform="translate(788 3457.144)">
      <path id="Path_78" data-name="Path 78" d="M85.821,28.637,84.754,25.5H81.3l-1.068,3.141H79.1L82.367,18.9h1.256l3.267,9.737Zm-4.272-4.02h3.015l-1.005-2.89c-.063-.188-.126-.44-.251-.754a4.454,4.454,0,0,1-.251-1.068h0c-.126.377-.188.754-.251,1.005a2.119,2.119,0,0,1-.251.754Z" transform="translate(-79.1 -18.397)" fill="#fff"/>
      <path id="Path_79" data-name="Path 79" d="M98.311,30.31V29.179h-.126A2.446,2.446,0,0,1,95.924,30.5a1.985,1.985,0,0,1-1.7-.754,3.73,3.73,0,0,1-.628-2.261V23.4h1.068v3.895c0,1.57.5,2.324,1.57,2.324a2.258,2.258,0,0,0,.691-.126,1.782,1.782,0,0,0,.565-.377,1.3,1.3,0,0,0,.377-.628A1.593,1.593,0,0,0,98,27.734V23.4h1.068v6.093a4.754,4.754,0,0,0,.063.942h-.817Z" transform="translate(-84.492 -20.071)" fill="#fff"/>
      <path id="Path_80" data-name="Path 80" d="M108.658,23.15h-1.822v3.957c0,.942.314,1.382.942,1.382a2.343,2.343,0,0,0,.754-.126l.063.879a2.707,2.707,0,0,1-1.068.188,1.8,1.8,0,0,1-1.319-.5,2.688,2.688,0,0,1-.44-1.759V23.213H104.7v-.879h1.068V21.077l1.068-.377v1.633h1.822Z" transform="translate(-88.619 -19.067)" fill="#fff"/>
      <path id="Path_81" data-name="Path 81" d="M119.091,28.376H117.96V24.293c0-1.445-.565-2.136-1.633-2.136a1.266,1.266,0,0,0-.691.188,1.368,1.368,0,0,0-.565.44,1.3,1.3,0,0,0-.377.628,1.594,1.594,0,0,0-.126.754v4.272H113.5V18.2h1.068v4.4h0a2.705,2.705,0,0,1,.942-.942,2.207,2.207,0,0,1,1.256-.314,2.281,2.281,0,0,1,1.759.754,3.208,3.208,0,0,1,.628,2.136l-.063,4.146Z" transform="translate(-91.891 -18.137)" fill="#fff"/>
      <path id="Path_82" data-name="Path 82" d="M131.459,26.581a3.8,3.8,0,0,1-.251,1.508,4.548,4.548,0,0,1-.691,1.194,3.285,3.285,0,0,1-1.068.754,3.38,3.38,0,0,1-1.382.251,2.914,2.914,0,0,1-1.319-.251,3.024,3.024,0,0,1-1.005-.754,3.419,3.419,0,0,1-.691-1.131,3.685,3.685,0,0,1-.251-1.445,4,4,0,0,1,.251-1.508,4.548,4.548,0,0,1,.691-1.194,2.558,2.558,0,0,1,1.068-.754A3.38,3.38,0,0,1,128.192,23a2.914,2.914,0,0,1,1.319.251,3.024,3.024,0,0,1,1.005.754,2.512,2.512,0,0,1,.628,1.131A3.012,3.012,0,0,1,131.459,26.581Zm-1.131.063a5.533,5.533,0,0,0-.126-1.068,3.837,3.837,0,0,0-.44-.879,1.963,1.963,0,0,0-.691-.565,2.146,2.146,0,0,0-1.759,0,1.964,1.964,0,0,0-.691.565,3.838,3.838,0,0,0-.44.879,3.12,3.12,0,0,0-.126,1.131,2.934,2.934,0,0,0,.188,1.068,3.837,3.837,0,0,0,.44.879,3.292,3.292,0,0,0,.691.628,2.045,2.045,0,0,0,.879.251,2.006,2.006,0,0,0,.879-.188,1.628,1.628,0,0,0,.691-.628,3.838,3.838,0,0,0,.44-.879C130.265,27.4,130.328,27.02,130.328,26.643Z" transform="translate(-96.092 -19.922)" fill="#fff"/>
      <path id="Path_83" data-name="Path 83" d="M141.266,24.205h-.377a1.266,1.266,0,0,0-.691.188,2.035,2.035,0,0,0-.565.5,4.184,4.184,0,0,0-.377.754,4.273,4.273,0,0,0-.126.942v3.769h-1.068v-5.9A6.093,6.093,0,0,0,138,23.388h.942V24.77h.063a3.565,3.565,0,0,1,.754-1.131,1.983,1.983,0,0,1,1.194-.44h.314v1.005Z" transform="translate(-101.001 -19.996)" fill="#fff"/>
      <path id="Path_84" data-name="Path 84" d="M146.445,19.554a.877.877,0,0,1-.188.565.768.768,0,0,1-.565.188.713.713,0,0,1-.5-.188.768.768,0,0,1-.188-.565,1.013,1.013,0,0,1,.188-.565.713.713,0,0,1,.5-.188.877.877,0,0,1,.565.188A.768.768,0,0,1,146.445,19.554Zm-.188,9.046h-1.068V21.627h1.068Z" transform="translate(-103.603 -18.36)" fill="#fff"/>
      <path id="Path_85" data-name="Path 85" d="M164.83,26.3a1.394,1.394,0,0,1-.063.565h-4.837a3.139,3.139,0,0,0,.628,1.947,2.364,2.364,0,0,0,1.759.691,4.59,4.59,0,0,0,1.884-.377l.188.817a5.015,5.015,0,0,1-2.261.44,3.2,3.2,0,0,1-1.382-.251,3.285,3.285,0,0,1-1.068-.754,2.513,2.513,0,0,1-.628-1.131,4.947,4.947,0,0,1-.251-1.445,3.8,3.8,0,0,1,.251-1.508,3.6,3.6,0,0,1,.628-1.194,3.024,3.024,0,0,1,1.005-.754A2.913,2.913,0,0,1,162,23.1a2.549,2.549,0,0,1,1.194.251,3.055,3.055,0,0,1,.879.691,3.186,3.186,0,0,1,.565,1.005A3.777,3.777,0,0,1,164.83,26.3Zm-1.131-.251a2.341,2.341,0,0,0-.44-1.57,1.622,1.622,0,0,0-1.319-.565,1.5,1.5,0,0,0-1.319.628,2.543,2.543,0,0,0-.628,1.57l3.706-.063Z" transform="translate(-108.735 -19.959)" fill="#fff"/>
      <path id="Path_86" data-name="Path 86" d="M175.4,28.339V27.146h-.063a2.367,2.367,0,0,1-2.324,1.382,2.549,2.549,0,0,1-1.194-.251,2.781,2.781,0,0,1-.942-.754,4.823,4.823,0,0,1-.628-1.131A4.948,4.948,0,0,1,170,24.947a3.8,3.8,0,0,1,.251-1.508,5.325,5.325,0,0,1,.628-1.194,3.023,3.023,0,0,1,1.005-.754,2.812,2.812,0,0,1,1.256-.251,2.168,2.168,0,0,1,2.073,1.068h0V18.1h1.068v9.36a3.319,3.319,0,0,0,.063.817H175.4v.063Zm-.126-4.146a3.183,3.183,0,0,0-.126-.817,2.437,2.437,0,0,0-.377-.691,2.256,2.256,0,0,0-.628-.44,1.593,1.593,0,0,0-.754-.126,2.006,2.006,0,0,0-.879.188,1.964,1.964,0,0,0-.691.565,3.838,3.838,0,0,0-.44.879,3.479,3.479,0,0,0-.126,1.131,6.923,6.923,0,0,0,.126,1.131,3.838,3.838,0,0,0,.44.879,1.536,1.536,0,0,0,.691.565,2.217,2.217,0,0,0,.879.188,1.739,1.739,0,0,0,.817-.188,2.256,2.256,0,0,0,.628-.44,1.5,1.5,0,0,0,.377-.691,3.183,3.183,0,0,0,.126-.817l-.063-1.319Z" transform="translate(-112.899 -18.1)" fill="#fff"/>
    </g>
    <path id="Path_87" data-name="Path 87" d="M154.4,28.214a1.911,1.911,0,0,1-.691,1.508,2.748,2.748,0,0,1-1.822.565,3.663,3.663,0,0,1-1.885-.5l.314-.879a3.114,3.114,0,0,0,1.633.5,1.6,1.6,0,0,0,1.005-.314,1.013,1.013,0,0,0,.377-.817,1.04,1.04,0,0,0-.314-.754,3.549,3.549,0,0,0-1.005-.565c-1.194-.5-1.822-1.131-1.822-1.947a1.739,1.739,0,0,1,.188-.817,2.256,2.256,0,0,1,.44-.628,2.594,2.594,0,0,1,.691-.44A2.442,2.442,0,0,1,152.45,23a2.768,2.768,0,0,1,1.633.44l-.314.817a2.69,2.69,0,0,0-1.382-.377,1.243,1.243,0,0,0-.879.314,1.04,1.04,0,0,0-.314.754.8.8,0,0,0,.063.377c.063.126.126.188.188.314.126.126.251.188.377.314a5.838,5.838,0,0,0,.628.314C153.769,26.643,154.4,27.334,154.4,28.214Z" transform="translate(682.253 3437.222)" fill="#fff"/>
  </g>
</svg>
